<svg xmlns="http://www.w3.org/2000/svg" xmlns:se="http://svg-edit.googlecode.com" xmlns:xlink="http://www.w3.org/1999/xlink" xmlns:dc="http://purl.org/dc/elements/1.1/" xmlns:cc="http://creativecommons.org/ns#" xmlns:rdf="http://www.w3.org/1999/02/22-rdf-syntax-ns#" xmlns:inkscape="http://www.inkscape.org/namespaces/inkscape" width="777" height="480">                                    <title>my vector image</title>                                    <!-- Created with Vector Paint - http://www.vectorpaint.yaks.com/ https://chrome.google.com/webstore/detail/hnbpdiengicdefcjecjbnjnoifekhgdo -->                                    <rect id="backgroundrect" width="100%" height="100%" x="0" y="0" fill="#FFFFFF" stroke="none"/>                                <g class="currentLayer" style=""><title>Layer 1</title><polyline fill="none" stroke="#def4e3" stroke-width="30" stroke-linejoin="round" stroke-dashoffset="" fill-rule="nonzero" marker-start="" marker-mid="" marker-end="" id="svg_1" points="368.485724048712,181.21429751965485 367.77143832226204,181.21429751965485 367.0571525958121,181.21429751965485 365.62858114291225,181.21429751965485 363.48572396356246,181.21429751965485 361.3428667842127,181.92858324610478 359.20000960486294,182.6428689725547 357.7714381519631,184.07144042545457 357.05715242551315,184.78572615190444 356.3428666990632,185.50001187835443 355.6285809726133,186.92858333125426 354.91429524616336,188.3571547841541 354.91429524616336,189.07144051060408 354.91429524616336,190.5000119635039 354.91429524616336,191.21429768995384 354.91429524616336,192.64286914285373 354.91429524616336,194.07144059575353 354.91429524616336,195.5000120486534 355.6285809726133,196.21429777510332 356.3428666990632,197.64286922800318 357.7714381519631,198.35715495445308 359.91429533131287,199.78572640735297 362.77143823711253,200.5000121338029 365.62858114291225,201.21429786025283 369.20000977516196,202.6428693131527 372.0571526809616,203.35715503960262 373.4857241338615,203.35715503960262 374.91429558676134,203.35715503960262 376.34286703966126,202.6428693131527 377.77143849256106,201.92858358670273 378.485724219011,201.21429786025283 379.2000099454609,199.07144068090304 380.62858139836067,197.64286922800318 381.34286712481065,196.21429777510332 381.34286712481065,194.78572632220343 382.05715285126064,193.35715486930363 382.05715285126064,192.64286914285373 382.05715285126064,191.92858341640374 382.05715285126064,191.21429768995384 381.34286712481065,190.5000119635039 380.62858139836067,189.78572623705398 379.9142956719109,189.07144051060408 378.485724219011,188.3571547841541 377.77143849256106,187.6428690577042 376.34286703966126,186.21429760480433 374.91429558676134,185.50001187835443 372.7714384074116,184.07144042545457 372.0571526809616,183.35715469900464 370.62858122806176,183.35715469900464 369.91429550161183,182.6428689725547 369.20000977516196,182.6428689725547 368.485724048712,181.92858324610478 368.485724048712,181.21429751965485 367.77143832226204,181.21429751965485 367.0571525958121,181.21429751965485 367.0571525958121,181.21429751965485 366.3428668693622,180.50001179320492 366.3428668693622,180.50001179320492 366.3428668693622,180.50001179320492 365.62858114291225,180.50001179320492 365.62858114291225,180.50001179320492 365.62858114291225,181.21429751965485 365.62858114291225,181.21429751965485 364.9142954164623,181.21429751965485 364.9142954164623,181.21429751965485 364.9142954164623,181.21429751965485 364.2000096900124,181.21429751965485 364.2000096900124,181.21429751965485 364.9142954164623,181.21429751965485 " style="color: rgb(222, 244, 227);"/></g></svg>