<svg xmlns="http://www.w3.org/2000/svg" xmlns:se="http://svg-edit.googlecode.com" xmlns:xlink="http://www.w3.org/1999/xlink" xmlns:dc="http://purl.org/dc/elements/1.1/" xmlns:cc="http://creativecommons.org/ns#" xmlns:rdf="http://www.w3.org/1999/02/22-rdf-syntax-ns#" xmlns:inkscape="http://www.inkscape.org/namespaces/inkscape" width="777" height="480" style="">
                                    <title>my vector image</title>
                                    <!-- Created with Vector Paint - http://www.vectorpaint.yaks.com/ https://chrome.google.com/webstore/detail/hnbpdiengicdefcjecjbnjnoifekhgdo -->
                                    <rect id="backgroundrect" width="100%" height="100%" x="0" y="0" fill="#FFFFFF" stroke="none"/>
                                <g style="" class="currentLayer"><title>Layer 1</title><polyline fill="#51608e" stroke="#ffffff" stroke-width="20" stroke-linejoin="round" stroke-dashoffset="" fill-rule="nonzero" marker-start="" marker-mid="" marker-end="" id="svg_1" points="199.91429260652902,228.71429832857504 199.91429260652902,228.71429832857504 199.91429260652902,228.00001260212514 201.34286405942888,227.28572687567524 208.48572132392817,222.2857267905257 221.34286440002683,215.1428695260264 238.4857218348251,208.00001226152716 257.05715072252326,203.00001217637765 273.48572243087165,200.85715499702786 288.48572268632006,200.1428692705779 299.91429430951894,200.1428692705779 308.4857230269181,201.5714407234778 315.6285802914173,203.71429790282755 322.7714375559166,205.14286935572744 328.485723367516,207.2857265350772 334.20000917911545,209.42858371442696 341.34286644361475,211.57144089377675 348.48572370811405,213.71429807312654 356.34286669906317,215.1428695260264 364.2000096900124,216.57144097892626 370.62858122806176,217.2857267053762 376.34286703966126,217.2857267053762 382.05715285126064,215.8571552524763 387.7714386628601,213.71429807312654 394.20001020090933,210.1428694408769 401.34286746540863,205.85715508217737 409.20001045635786,200.85715499702786 416.34286772085716,195.14286918542842 423.48572498535646,189.42858337382904 430.62858224985564,184.42858328867956 437.057153787905,179.42858320353002 442.7714395995044,174.42858311838052 449.9142968640037,169.42858303323106 457.057154128503,163.71429722163163 464.2000113930022,159.42858286293205 471.3428686575015,155.8571542306824 478.4857259220008,154.42858277778254 487.7714403658499,153.00001132488268 496.34286908324907,152.28572559843275 505.628583527098,152.28572559843275 512.0571550651474,153.7142970513326 517.7714408767469,157.28572568358226 524.2000124147962,161.57144004228184 530.6285839528456,167.28572585388127 537.0571554908948,173.7142973919306 543.4857270289442,183.00001183577967 549.2000128405436,194.4285834589785 552.7714414727933,206.5714408086273 554.9142986521431,218.00001243182612 557.0571558314929,229.428584055025 558.4857272843927,240.1428699517739 560.6285844637425,250.14287012207294 562.0571559166424,257.28572738657215 563.4857273695422,263.0000131981716 564.9142988224421,267.28572755687117 565.628584548892,270.8571561891208 566.342870275342,274.4285848213704 567.0571560017919,278.00001345362006 567.0571560017919,281.5714420858697 567.0571560017919,286.5714421710192 567.0571560017919,292.2857279826186 565.628584548892,298.71429952066796 562.7714416430923,305.85715678516726 558.4857272843927,314.42858550256636 551.3428700198934,325.1428713993153 544.2000127553941,335.1428715696143 537.0571554908948,343.71430028701343 532.0571554057454,350.14287182506274 527.7714410470459,355.14287191021225 524.2000124147962,359.42858626891183 519.9142980560966,363.0000149011615 516.342869423847,365.8571578069612 512.0571550651474,369.42858643921085 506.342869253548,373.71430079791037 499.2000119890487,377.28572943016 491.34286899809956,381.5714437888596 481.3428688278005,385.14287242110925 469.91429720460167,388.00001532690885 457.771439854953,390.1428725062587 442.0571538730545,390.8571582327086 428.48572507050596,390.8571582327086 416.34286772085716,390.8571582327086 403.4857246447584,390.8571582327086 392.7714387480095,389.4285867798088 382.05715285126064,388.00001532690885 372.0571526809616,386.5714438740091 363.48572396356246,385.8571581475592 354.2000095197134,385.14287242110925 344.2000093494145,385.14287242110925 334.9142949055654,383.71430096820944 325.6285804617163,383.00001524175946 315.6285802914173,382.2857295153095 306.3428658475683,381.5714437888596 296.3428656772693,380.85715806240967 285.62857978052034,380.1428723359598 277.0571510631212,379.4285866095098 267.7714366192722,378.00001515660995 258.4857221754231,376.57144370371014 248.48572200512416,375.85715797726016 238.4857218348251,374.4285865243603 230.62857884387594,374.4285865243603 221.34286440002683,373.71430079791037 212.77143568262773,373.0000150714605 203.48572123877867,371.5714436185606 191.34286388912992,369.42858643921085 177.77143508658128,366.5714435334111 164.91429201048257,363.7143006276114 151.34286320793396,359.42858626891183 138.48572013183525,354.4285861837623 127.77143423508635,350.14287182506274 117.05714833833741,345.1428717399133 106.34286244158852,339.42858592831385 97.77143372418936,334.42858584316434 89.20000500679024,328.00001430511503 84.20000492164075,321.57144276706566 80.6285762893911,315.1428712290163 80.6285762893911,309.4285854174169 80.6285762893911,300.1428709735678 84.20000492164075,285.8571564445693 90.6285764596901,269.42858473622096 99.20000517708922,252.28572730142264 109.20000534738821,235.14286986662435 118.48571979123727,222.2857267905257 124.20000560283671,215.8571552524763 129.91429141443612,211.57144089377675 135.62857722603556,208.7142979879771 140.62857731118504,207.2857265350772 147.05714884923438,206.5714408086273 152.77143466083382,206.5714408086273 157.05714901953337,208.00001226152716 160.62857765178302,209.42858371442696 164.20000628403267,211.57144089377675 167.05714918983236,214.42858379957647 169.91429209563208,216.57144097892626 172.7714350014318,218.00001243182612 175.6285779072315,220.1428696111759 178.4857208130312,220.85715533762584 182.05714944528086,222.2857267905257 186.34286380398038,223.0000125169756 189.91429243623003,223.71429824342556 192.77143534202978,223.71429824342556 194.91429252137956,224.4285839698755 197.05714970072933,224.4285839698755 198.48572115362913,224.4285839698755 200.62857833297895,224.4285839698755 202.77143551232876,224.4285839698755 204.91429269167853,224.4285839698755 207.05714987102832,224.4285839698755 209.91429277682806,223.0000125169756 212.77143568262773,222.2857267905257 215.62857858842747,220.85715533762584 217.77143576777718,220.1428696111759 219.20000722067707,219.42858388472595 220.62857867357692,219.42858388472595 221.34286440002683,219.42858388472595 " style="color: rgb(0, 0, 0);" class="selected" fill-opacity="1" stroke-opacity="1"/><polyline fill="#ffffff" stroke="#dadada" stroke-width="20" stroke-linejoin="round" stroke-dashoffset="" fill-rule="nonzero" marker-start="" marker-mid="" marker-end="" id="svg_2" points="404.9142960976583,300.1428709735678 404.9142960976583,300.1428709735678 " style="color: rgb(0, 0, 0);"/></g></svg>