<?xml version="1.0" encoding="UTF-8"?>
<svg width="234px" height="248px" viewBox="0 0 234 248" version="1.1" xmlns="http://www.w3.org/2000/svg" xmlns:xlink="http://www.w3.org/1999/xlink">
    <!-- Generator: sketchtool 55.1 (78136) - https://sketchapp.com -->
    <title>F90959FD-725B-4FB5-958B-3C9B4D6748ED</title>
    <desc>Created with sketchtool.</desc>
    <g id="Homepage" stroke="none" stroke-width="1" fill="none" fill-rule="evenodd" opacity="0.5">
        <g id="Advice" transform="translate(-440.000000, -2806.000000)" fill="#73DA9F">
            <g id="Group-27" transform="translate(129.000000, 2791.000000)">
                <g id="Group-21" transform="translate(299.000000, 0.000000)">
                    <path d="M291.36766,119.179101 C290.091671,119.099453 288.714918,117.41854 287.531466,117.41854 C287.388547,116.794438 289.809945,116.95611 288.623409,115.106392 C287.783374,113.797561 283.032086,114.825843 281.704686,114.534596 C280.801932,114.336072 274.501154,113.264994 274.562846,112.48041 C274.779795,109.745061 282.228038,111.204865 283.412518,111.058647 C284.529137,110.921939 289.16938,111.657784 289.71021,110.725792 C288.023971,108.399379 285.147082,109.326616 283.042368,109.326616 C283.042368,107.048942 281.71394,108.838033 280.817354,107.864435 C281.134038,107.734859 281.276957,107.451933 281.24714,107.015657 C274.376743,107.015657 267.849763,105.862555 261.114059,105.282437 C258.731732,105.076781 255.530962,105.358518 253.253511,104.125769 C251.378084,103.110563 251.519975,101.730407 249.609589,100.089912 C246.038669,97.0276528 240.287976,97.1298866 236.171084,96.6294165 C231.967824,96.1194363 227.733718,94.7499789 223.573643,93.7335848 C216.463676,91.9944216 208.121933,92.047916 201.127124,92.0015542 C191.201961,91.9349833 181.566748,94.0307761 171.94593,93.7228859 C167.922604,93.5944993 163.488001,93.8524613 158.928985,93.7288298 C158.787095,93.7252635 158.639034,94.8331925 158.443677,94.8343813 C158.08895,94.8379476 157.867888,93.727641 157.455582,93.727641 C155.985264,93.7288298 154.373055,93.8988232 153.032289,94.0307761 C151.429333,94.1888818 148.624418,94.1353874 146.764414,94.3208348 C142.423376,94.7523565 138.452488,95.7984697 134.0148,95.4572941 C133.347501,95.4061772 132.28332,94.1686728 131.111178,94.3279674 C130.125139,94.461109 128.912897,96.0635643 127.953592,96.0136362 C126.156307,95.9209125 124.208907,94.3113246 122.559682,94.3041921 C120.41384,94.2934932 118.12405,95.8246225 116.035787,95.7152562 C113.703841,95.5928134 111.464433,95.2813569 109.088275,95.4287638 C104.797619,95.6950472 102.241527,94.7583003 98.1050996,95.7711281 C90.3946676,97.6576982 81.6498716,98.4030539 73.2011958,100.646254 C68.856045,101.799356 64.1006445,101.235881 59.5909825,101.235881 C54.0613514,101.235881 48.4083369,101.839774 42.8920724,101.235881 C35.5579596,100.433465 26.8090508,100.221864 18.8631622,101.263223 C15.2583116,101.736351 11.5897129,102.052563 8.06403324,102.392549 C4.85298119,102.702817 0.684679873,102.694496 -2.3855095,104.342124 C-3.24199569,104.800987 -5.05161837,105.748433 -5.11639463,107.346133 C-5.09685893,106.875382 -3.80544639,111.320175 -3.77665694,111.373669 C-2.84819712,113.138985 -1.43031663,113.379116 -0.643747681,114.830598 C-1.67811155,116.056215 -2.79061822,116.104954 -1.162986,118.200747 C-1.81280506,120.6817 -5.27884939,118.077115 -6.04793903,121.121543 C-6.21142199,121.772986 -5.29118773,125.106283 -5.12667658,125.708987 C-4.43675793,128.241056 -3.12786608,129.255073 -4.04604395,131.886999 C-4.14577883,132.172302 -5.17191715,131.785954 -5.4515861,132.423132 C-6.42528649,134.636612 -5.64797129,132.8392 -5.34156927,135.35106 C-5.15957881,136.838205 -4.46451919,139.234756 -4.0162263,140.542397 C-3.58644092,141.7906 -2.87904296,142.236387 -2.47187786,143.255159 C-2.15210931,144.057575 -1.902258,145.607725 -1.56089735,146.583701 C-1.07970223,147.96148 -0.561492105,148.771029 0.254894488,150.166639 C-0.163580755,153.163516 -6.44482219,146.790546 -7.79381363,150.217756 C-8.90220752,153.035129 -5.1996784,155.971379 -4.79765427,158.446387 C-4.73082162,158.8577 -4.34113583,159.236916 -4.24037275,159.956119 C-4.11596119,160.842938 -5.45364249,162.691467 -5.36418955,164.241617 C-5.24491897,166.314823 -3.83834862,167.005496 -2.70527806,168.197827 C0.241527957,171.302881 2.49944352,173.39273 5.85238644,174.627857 C9.65567864,176.025845 14.4604325,174.624291 18.0406064,177.008953 C18.8035269,177.516556 18.4189821,178.925243 19.0739421,179.236699 C19.675436,179.523192 21.4254234,178.679168 22.2304998,178.679168 C23.3337528,178.679168 24.5439379,179.321101 25.5032436,179.254531 C26.0934273,179.212924 27.0835788,178.364146 27.6254374,178.370089 C27.8279918,178.372467 29.1173479,178.932375 29.4309473,178.949018 C30.7871361,179.02391 33.0039239,178.828953 34.572949,179.254531 C37.3038342,179.993942 40.8490495,180.847476 43.6313444,180.89146 C46.375596,180.934256 49.7192852,180.383857 52.6064559,180.98775 C54.5055315,181.384798 56.5752874,180.457561 58.2317091,181.231447 C58.3561207,181.289696 59.2280298,182.466574 59.0583776,182.44161 C59.3874,182.492727 59.5210653,183.266613 59.9086947,183.2785 C60.2449143,183.289199 60.8803387,181.958971 60.8422955,181.956594 C60.7672372,181.951839 61.6710204,181.196973 62.1686666,181.237391 C61.4962273,181.182708 63.9895994,186.869759 63.9895994,182.144418 C65.2553071,182.017221 66.474746,185.039061 68.3244683,184.357899 C69.0082178,184.104692 68.7192951,182.319167 69.2642383,181.999389 C69.8688167,181.645137 72.6202658,180.830833 73.4510471,181.899533 C72.7487901,182.688873 72.6305477,183.298709 71.6208605,183.298709 C71.6208605,186.856683 75.9927444,185.654842 77.5638259,185.424221 C78.9076764,185.225697 81.4627402,188.016918 81.9305688,187.483162 C84.3509391,184.72285 79.4032662,185.081857 81.3393568,182.623491 C83.47903,179.910729 83.3433083,184.797742 84.6378054,186.460824 C85.6330979,187.738747 85.0902111,186.822209 86.3590034,187.00409 C87.2196023,187.125344 88.9665051,186.365723 90.0245175,186.766337 C90.1725775,186.823398 90.3843856,188.287956 90.7473383,188.413965 C92.0099614,188.857375 92.9764645,188.3997 94.0632663,186.929198 C94.5043618,186.333626 93.3867141,182.640133 94.9619084,184.744248 C95.1798857,185.034306 94.7943127,186.33957 94.9619084,186.766337 C95.276536,187.565187 94.1424372,189.020235 96.3088435,189.656225 C97.1077508,190.174526 97.7791619,189.985513 98.3230769,189.09275 C98.85671,188.059713 99.3810892,188.348583 99.8951866,189.955794 C100.184109,190.03663 99.348187,190.552554 100.797942,190.812893 C102.170581,191.058967 102.144877,190.418223 103.045575,189.395885 C102.506801,188.09181 102.019437,189.010725 101.914561,187.157441 C101.847728,185.963921 102.987996,185.612046 103.490783,185.612046 C103.68614,186.615364 102.226104,186.664103 102.6672,187.728048 C103.066139,188.692136 105.664387,190.861632 106.520873,190.956734 C106.550691,190.9603 108.733548,190.350464 108.615306,190.317178 C109.99103,190.704716 107.376331,191.56657 110.224431,191.968373 C109.31345,191.839986 111.948713,190.877086 111.26702,191.282455 C112.080322,190.79625 113.029346,189.229458 113.817971,189.206872 C114.335153,189.192606 116.920034,191.760339 117.663419,191.941031 C119.389758,192.361854 120.663691,190.398014 121.446148,190.233965 C122.480511,190.017609 122.056895,191.408464 122.595669,191.390633 C123.702007,191.35497 124.834049,191.282455 125.935246,191.390633 C132.881729,192.065851 140.329971,190.610803 147.247665,189.656225 C154.424464,188.667172 162.210983,188.349772 169.476207,186.766337 C175.625839,185.427787 181.647975,183.102563 187.721522,181.571434 C194.426379,179.882199 201.331735,178.502042 207.954337,176.942383 C210.889833,176.25171 213.802708,175.75124 216.763909,175.194898 C219.986271,174.589817 223.153111,174.737223 226.362107,173.342802 C227.330666,172.923168 227.929075,172.133828 228.928481,171.741536 C229.666724,171.451477 230.578733,171.834259 231.315949,171.741536 C231.955486,171.6607 231.837243,170.839263 232.533331,170.586056 C232.854128,170.469557 233.762024,171.420569 234.338841,171.155474 C235.005111,170.846396 234.200035,168.971713 235.212807,168.26202 C235.830752,167.828121 236.78286,168.215658 237.288732,168.007625 C242.467748,165.879735 248.849753,164.107286 254.701209,163.263263 C257.114382,162.914955 259.081318,162.481056 261.337178,161.916393 C261.816316,161.797516 262.750945,160.997477 263.53443,160.760913 C264.664416,160.419737 267.032348,160.365054 267.726379,158.811338 C267.853876,158.340587 266.859611,157.054344 266.97991,156.872462 C267.963892,155.387695 269.460944,155.191549 270.463434,156.993716 C270.04393,157.246923 269.897927,157.733128 270.025423,158.448765 C270.799653,158.448765 272.005726,158.005356 272.269972,157.872214 C272.690504,157.658236 271.448444,156.909314 271.449473,156.906937 C271.679788,156.323253 277.305041,157.227903 274.21326,153.831601 C273.542877,153.094567 272.062277,154.201307 271.820651,152.670178 C271.413486,150.089369 274.724273,152.030622 274.44666,151.148559 C273.697106,148.771029 271.982077,150.429356 275.411107,149.20255 C276.000262,148.992139 276.475288,150.674242 277.202222,149.363034 C277.962058,147.993576 275.829582,148.625999 275.860428,148.625999 C275.860428,144.011213 276.114392,148.337129 277.188855,146.015471 C274.692399,142.472952 285.163533,143.637941 284.837596,142.268484 C284.876667,142.025976 279.907402,140.818191 279.361431,140.746865 C277.860266,140.548341 275.959134,140.845532 274.682117,140.028851 C274.175217,139.705506 274.806528,138.022215 274.38394,137.656076 C273.759826,137.113999 271.509108,137.066448 270.922009,137.066448 C270.611494,135.720766 279.666805,134.035097 280.689858,133.101917 C282.490227,131.457855 284.898259,127.242494 281.24714,127.242494 C281.24714,125.649549 284.386218,125.222782 284.793383,124.684271 C284.301906,124.020941 282.594075,125.068243 282.594075,123.197126 C284.708043,123.197126 284.354344,120.60443 285.73521,119.729499 C287.314517,118.728559 290.935818,121.827669 292,119.993405 C291.78922,119.721177 291.57844,119.450139 291.36766,119.179101 C291.221657,119.16959 291.57844,119.450139 291.36766,119.179101" id="stroke_2" transform="translate(142.000000, 142.000000) rotate(-45.000000) translate(-142.000000, -142.000000) "></path>
                </g>
            </g>
        </g>
    </g>
</svg>